<svg width="53" height="54" viewBox="0 0 53 54" fill="none" xmlns="http://www.w3.org/2000/svg">
<path d="M41.7999 11.3555L41.7305 11.0966C40.7044 7.28886 38.1371 4.06298 34.5917 2.12656C31.0462 0.190139 26.8121 -0.298708 22.8181 0.767246L12.0603 3.6516C8.06875 4.72669 4.64713 7.26815 2.54597 10.7185C0.444798 14.1689 -0.164358 18.2464 0.852117 22.0568L4.63155 36.153C5.53022 39.5291 7.50287 42.5303 10.2784 44.7442L11.8934 46.0373L12.3099 47.5907C12.8949 49.767 14.3619 51.6108 16.3883 52.7167C18.4148 53.8227 20.8348 54.1003 23.1165 53.4885L42.4756 48.2981C44.7582 47.6861 46.7154 46.2341 47.9166 44.2615C49.1178 42.289 49.4647 39.9575 48.8808 37.7799L48.5282 36.4647L49.3639 35.1694C50.6393 33.1807 51.4881 30.9741 51.8593 28.6826C52.2305 26.3911 52.1162 24.0621 51.5235 21.8359L50.3819 17.5779C49.8917 15.7588 48.7831 14.1613 47.2295 13.0355C45.6759 11.9098 43.7652 11.3193 41.7963 11.3565L41.7999 11.3555ZM41.3783 44.1909L22.0156 49.3824C21.4506 49.5338 20.8626 49.5777 20.2854 49.5114C19.7081 49.4451 19.1527 49.2699 18.651 48.9959C17.6378 48.4425 16.9046 47.52 16.6127 46.4315L44.582 38.9325C44.7266 39.4716 44.7584 40.0353 44.6756 40.5914C44.5928 41.1475 44.397 41.6851 44.0995 42.1734C43.802 42.6617 43.4086 43.0912 42.9416 43.4374C42.4747 43.7836 41.9435 44.0396 41.3783 44.1909ZM47.2247 22.9885C47.6685 24.6583 47.7536 26.405 47.4748 28.1236C47.196 29.8421 46.5591 31.4969 45.6025 32.9884L44.6137 34.5226L14.5836 42.5742L13.1688 41.442C11.0863 39.7796 9.60624 37.5266 8.93212 34.9926L7.06021 28.0109C8.56117 28.3838 10.1476 28.3663 11.6583 27.9603L26.7186 23.9224C27.2891 23.7694 27.7783 23.4065 28.0786 22.9134C28.3788 22.4204 28.4655 21.8377 28.3196 21.2934C28.1736 20.7491 27.807 20.2879 27.3004 20.0112C26.7938 19.7345 26.1887 19.665 25.6181 19.8179L10.5597 23.8553C9.99444 24.0071 9.40619 24.0512 8.82857 23.9849C8.25094 23.9187 7.69526 23.7435 7.19329 23.4693C6.69131 23.1952 6.25289 22.8274 5.90306 22.3871C5.55324 21.9468 5.29889 21.4426 5.15453 20.9032C4.42837 18.1814 4.86347 15.2687 6.36439 12.804C7.8653 10.3393 10.3095 8.52393 13.1608 7.75603L23.9186 4.87168C26.7716 4.11018 29.7961 4.45934 32.3287 5.84258C34.8613 7.22581 36.6952 9.53017 37.4281 12.2502L37.4975 12.5091C35.7741 13.4618 34.415 14.929 33.633 16.681C32.851 18.4329 32.6902 20.3707 33.1758 22.1911L34.8265 28.3477C34.9725 28.892 35.3391 29.3532 35.8457 29.6299C36.3523 29.9066 36.9574 29.9761 37.528 29.8232C38.0985 29.6702 38.5877 29.3073 38.8879 28.8143C39.1882 28.3212 39.2749 27.7385 39.129 27.1942L37.4783 21.0375C37.1863 19.9487 37.3597 18.783 37.9604 17.7967C38.561 16.8104 39.5396 16.0844 40.6809 15.7784C41.8222 15.4724 43.0327 15.6115 44.0462 16.165C45.0596 16.7185 45.793 17.6412 46.0849 18.73L47.2247 22.9885Z" fill="#E73538"/>
</svg>
